<svg width="22" height="30" viewBox="0 0 22 30" fill="none" xmlns="http://www.w3.org/2000/svg">
<g clip-path="url(#clip0_3627_55776)">
<path d="M2.82851 10.3663C2.78885 9.22855 2.69367 8.07516 2.80471 6.94515C2.91575 5.80734 3.25679 4.66174 3.9944 3.77331C4.39889 3.28234 4.91442 2.89268 5.42202 2.50302C6.21514 1.90294 7.02413 1.30287 7.96795 0.944378C10.3632 0.0403668 13.1867 1.00673 14.9792 2.80696C15.3599 3.18882 15.7009 3.60966 15.9785 4.06945C17.0492 5.8463 17.0175 8.03619 16.9541 10.1014C16.8192 14.7461 16.7082 19.3908 16.613 24.0356C13.1946 24.207 9.76834 24.1837 6.35791 23.9577C5.27926 23.8875 4.19268 23.8018 3.14575 23.5134C2.92368 23.4511 2.80471 23.4433 2.78092 23.2095C2.75712 22.9367 2.73333 22.664 2.70954 22.3912C2.66988 21.8457 2.64609 21.2924 2.63815 20.7469C2.61436 19.6402 2.63815 18.5336 2.67781 17.427C2.71747 16.3203 2.77299 15.2137 2.81264 14.0993C2.8523 12.9848 2.87609 11.8782 2.84437 10.7638C2.83644 10.6391 2.82851 10.5066 2.82851 10.3663Z" fill="white"/>
<path d="M0.829864 28.5555C6.2469 29.1478 11.6957 29.3426 17.1365 29.5375C17.1444 28.3217 17.0572 27.0982 16.8668 25.8902C15.4471 26.0851 14.0116 26.0071 12.584 25.9292C11.4022 25.8591 10.2205 25.7967 9.03869 25.7344C8.2773 25.6954 7.50797 25.6487 6.74657 25.6097C5.97724 25.5707 5.20791 25.5318 4.43858 25.4928C3.66924 25.4538 2.89198 25.4226 2.12265 25.3993C1.73402 25.3837 1.35332 25.3759 0.964695 25.3681C0.829864 25.3681 0.710895 25.3525 0.687101 25.5006C0.663308 25.6642 0.695033 25.8513 0.702964 26.0149C0.742621 26.7709 0.774345 27.519 0.814001 28.275C0.814001 28.3685 0.821933 28.462 0.829864 28.5555Z" fill="#E0E3BD"/>
<path d="M1.97194 24.0666C2.13056 23.9186 2.29712 23.7627 2.51126 23.6926C2.69368 23.6302 2.89196 23.638 3.09024 23.638C6.84172 23.7549 10.5932 23.8796 14.3368 24.0121C14.8681 24.0277 15.3995 24.0511 15.923 24.1134C16.0658 24.129 16.2085 24.1524 16.3196 24.2459C16.4068 24.3238 16.4623 24.4329 16.502 24.5498C16.7241 25.1109 16.8589 25.6954 16.9144 26.2955C15.7247 25.8045 14.3605 26.124 13.0757 26.0305C12.5046 25.9916 11.9494 25.8669 11.3784 25.7967C10.0777 25.6331 8.76108 25.7578 7.44449 25.7656C6.04066 25.7734 4.63683 25.6409 3.233 25.5162C2.65402 25.4616 2.07504 25.4071 1.50399 25.3603C1.36916 25.3447 0.87743 25.3759 0.853636 25.1889C0.837774 25.0174 1.17089 24.7992 1.27399 24.7057C1.51193 24.4875 1.74193 24.2771 1.97194 24.0666Z" fill="#E0E3BD"/>
<path d="M16.8985 8.99478C16.9541 8.19208 17.0175 7.38938 16.8906 6.59447C16.6765 5.28521 15.9547 4.10065 15.0585 3.1187C14.1623 2.13676 13.0678 1.33406 11.997 0.546947C14.4795 0.305358 17.2158 1.03013 18.6831 3.0096C20.071 4.87217 20.0472 7.37379 19.9759 9.68058C19.8331 14.0993 19.6903 18.5103 19.5476 22.929C18.7862 23.3499 17.9693 23.6694 17.1206 23.8798C16.9303 23.9266 16.6606 23.9733 16.5258 23.8019C16.4147 23.6616 16.4465 23.5057 16.4623 23.3421C16.5099 22.8511 16.4623 22.3289 16.4623 21.8302C16.4623 20.7859 16.4703 19.7494 16.4861 18.7129C16.502 17.6764 16.5258 16.6399 16.5654 15.6034C16.5972 14.5669 16.6447 13.5226 16.7003 12.4861C16.7558 11.4496 16.8113 10.4131 16.8827 9.38444C16.8827 9.24416 16.8906 9.11947 16.8985 8.99478Z" fill="#847F88"/>
<path d="M17.3506 29.1558C18.5007 28.7505 19.611 28.2596 20.6818 27.6829C20.7452 27.6517 20.8087 27.6127 20.8483 27.5504C20.88 27.4958 20.888 27.4335 20.8959 27.3712C21.0069 26.4516 21.118 25.5164 21.0307 24.5968C21.0228 24.4955 20.999 24.3786 20.9038 24.3474C20.8404 24.324 20.7611 24.3474 20.6976 24.3786C19.6666 24.7994 18.6355 25.2202 17.6044 25.6489C17.3982 25.7346 17.1682 25.8359 17.0175 26.0073C16.8906 26.1554 16.9541 26.4048 16.9541 26.5918C16.9541 27.1452 17.0096 27.7063 17.1206 28.2518C17.1841 28.5479 17.2634 28.8519 17.3506 29.1558Z" fill="#847F88"/>
<path d="M16.9382 25.8357C16.9778 25.898 17.0254 25.9526 17.0968 25.9682C17.1603 25.9838 17.2316 25.9448 17.2872 25.9136C18.4927 25.2512 19.6983 24.5966 20.9038 23.9342C20.4517 23.6302 20.0076 23.3185 19.5555 23.0146C19.5079 22.9834 19.4524 22.9444 19.3969 22.9366C19.3176 22.921 19.2462 22.9444 19.1669 22.9756C18.3896 23.2406 17.6203 23.5055 16.843 23.7705C16.6368 23.8406 16.4068 23.9264 16.3037 24.1212C16.2878 24.1524 16.4227 24.2225 16.4385 24.2459C16.4623 24.2926 16.4544 24.3706 16.4544 24.4251C16.4623 24.5888 16.494 24.7602 16.5337 24.9161C16.613 25.2512 16.7478 25.5629 16.9382 25.8357Z" fill="#847F88"/>
<path d="M7.06379 16.5854C7.19863 16.1178 6.94483 15.697 6.57999 15.2761C6.01687 14.6293 5.50134 13.9513 5.38237 13.0473C5.12064 11.0055 6.2786 9.01042 8.19003 8.28565C10.1966 7.52192 12.4174 8.20772 13.615 9.95339C14.1464 10.7249 14.4161 11.5744 14.4161 12.5096C14.4161 13.3668 14.1385 14.1072 13.5278 14.7228C13.2343 15.0112 12.9885 15.3463 12.6791 15.619C12.354 15.8996 12.235 16.2191 12.2588 16.6244C12.2746 16.9439 12.235 17.2634 12.2429 17.5829C12.2429 17.6063 12.2429 17.6297 12.2429 17.6453C12.2429 17.6765 12.235 17.6998 12.235 17.7232C12.235 17.7388 12.235 17.8869 12.2429 17.8869C12.1874 17.8869 12.1319 17.8869 12.0843 17.8947C12.0208 17.8947 11.9574 17.9025 11.8939 17.8947C11.775 17.8791 11.6639 17.8791 11.545 17.8713C11.5212 17.8713 11.4974 17.8713 11.4657 17.8635C11.4181 17.8635 11.3784 17.8557 11.3308 17.8557C11.315 17.8557 11.2991 17.8479 11.2753 17.8479C11.2515 17.8479 11.2277 17.8479 11.2039 17.8479C11.1167 17.8479 11.0215 17.8479 10.9263 17.8479C10.9263 17.8011 10.9184 17.7544 10.9184 17.7076C10.9105 17.6141 10.9105 17.5206 10.9105 17.4271C10.9105 17.2478 10.9025 17.0686 10.9025 16.8893C10.9025 16.8815 10.9025 16.8738 10.8946 16.866C10.8867 16.8582 10.8787 16.8582 10.8708 16.8582C10.6805 16.8426 10.4901 16.8582 10.2997 16.8815C10.2997 16.9907 10.2997 17.0998 10.2918 17.2167C10.2918 17.2478 10.2918 17.279 10.2918 17.3102C10.2918 17.3569 10.2918 17.3959 10.2839 17.4427C10.2839 17.4582 10.276 17.466 10.276 17.4738C10.268 17.4894 10.268 17.5128 10.268 17.5284C10.2601 17.6141 10.2601 17.7076 10.276 17.7934C10.2204 17.7934 10.1649 17.7934 10.1015 17.7934C10.0301 17.7934 9.95077 17.7934 9.87939 17.7778C9.79214 17.7622 9.69697 17.77 9.60972 17.7622C9.578 17.7622 9.53834 17.7622 9.50662 17.7544C9.41937 17.7544 9.33213 17.7388 9.24489 17.7388C9.1973 17.7388 9.15764 17.7388 9.11005 17.7388C9.10212 17.7388 8.98316 17.7466 8.97522 17.7544C8.97522 17.6765 8.98316 17.5907 8.98316 17.5128C8.98316 17.4738 8.98316 17.4349 8.99109 17.3881C8.99109 17.3491 8.99902 17.3102 8.99902 17.2712C8.99902 17.1153 8.99902 16.9595 8.99109 16.7958C8.78487 16.7569 8.57073 16.7413 8.35659 16.7413C8.34866 16.9205 8.34072 17.0998 8.32486 17.279C8.31693 17.3647 8.31693 17.4582 8.309 17.5518C8.309 17.5751 8.309 17.5985 8.309 17.6219C8.309 17.6375 8.309 17.6531 8.30107 17.6609C8.29314 17.6765 8.25348 17.6765 8.23762 17.6765C8.12658 17.6842 8.00761 17.6765 7.89658 17.6687C7.84899 17.6687 7.79347 17.6609 7.74588 17.6609C7.61898 17.6531 7.49208 17.6531 7.36518 17.6453C7.32553 17.6453 7.27794 17.6375 7.23828 17.6375C7.21449 17.6297 7.19069 17.6219 7.15897 17.6219C7.15104 17.6219 7.02414 17.6141 7.02414 17.6141C7.02414 17.6063 7.02414 17.5985 7.02414 17.5907C7.02414 17.505 7.02414 17.4115 7.02414 17.318C7.02414 17.279 7.01621 17.24 7.03207 17.2011C7.04 17.1855 7.03207 17.1699 7.03207 17.1543C7.03207 17.1153 7.03207 17.0764 7.03207 17.0374C7.03207 16.9361 7.04 16.8426 7.04 16.7413C7.05586 16.7413 7.05586 16.7101 7.06379 16.5854ZM9.63352 15.1515C9.7049 15.1593 9.77628 15.1593 9.84766 15.167C9.9587 15.1748 10.0777 15.1826 10.1887 15.1982C10.1491 15.0813 10.1094 14.9644 10.0618 14.8553C10.0459 14.8086 10.0222 14.7696 10.0063 14.7306C9.99042 14.6917 9.96663 14.6605 9.95077 14.6215C9.94283 14.6137 9.94284 14.5981 9.94284 14.5903C9.9349 14.5514 9.91904 14.5202 9.91111 14.4812C9.87145 14.3877 9.83973 14.2864 9.80007 14.1851C9.78421 14.1383 9.76835 14.0994 9.74455 14.0526C9.74455 14.0604 9.72869 14.0838 9.72869 14.0838C9.72076 14.0994 9.7049 14.115 9.69697 14.1305C9.59386 14.2708 9.49869 14.4111 9.41144 14.5592C9.36386 14.6293 9.3242 14.7072 9.27661 14.7852C9.25282 14.8241 9.23696 14.8631 9.21316 14.8943C9.20523 14.9099 9.1973 14.9255 9.18937 14.941C9.18144 14.9722 9.14971 15.0034 9.12592 15.0346C9.09419 15.0735 9.06247 15.1125 9.03867 15.1593C9.03867 15.1593 9.06247 15.1593 9.0704 15.1593C9.07833 15.1593 9.09419 15.1593 9.10212 15.1593C9.12592 15.1593 9.14971 15.1593 9.17351 15.1593C9.22109 15.1593 9.26075 15.1593 9.30834 15.1515C9.3242 15.1515 9.34799 15.1437 9.36386 15.1437C9.38765 15.1437 9.41144 15.1437 9.43524 15.1515C9.48282 15.1515 9.52248 15.1593 9.57007 15.1593C9.59386 15.1437 9.61765 15.1437 9.63352 15.1515Z" fill="#272F49"/>
<path d="M6.88143 16.3671C7.00833 15.9073 6.76246 15.4942 6.40555 15.0812C5.85036 14.4422 5.34277 13.7797 5.23173 12.8991C4.97793 10.8963 6.1121 8.94795 7.98387 8.23877C9.95082 7.49062 12.124 8.16084 13.3057 9.87534C13.8212 10.6313 14.0909 11.4652 14.0988 12.377C14.0988 13.2186 13.8292 13.9434 13.2264 14.5435C12.9409 14.8318 12.7029 15.1591 12.3936 15.4163C12.0764 15.6891 11.9574 16.0008 11.9812 16.4061C11.9971 16.7178 11.9574 17.0295 11.9653 17.3412C11.9653 17.3646 11.9653 17.3802 11.9653 17.4036C11.9653 17.427 11.9574 17.4581 11.9574 17.4815C11.9574 17.4971 11.9574 17.6374 11.9653 17.6374C11.9098 17.6374 11.8622 17.6374 11.8067 17.6374C11.7433 17.6374 11.6798 17.6452 11.6164 17.6374C11.5053 17.6218 11.3864 17.6218 11.2753 17.614C11.2515 17.614 11.2277 17.614 11.2039 17.6062C11.1563 17.6062 11.1167 17.5984 11.0691 17.5984C11.0532 17.5984 11.0374 17.5906 11.0215 17.5906C10.9977 17.5906 10.9739 17.5906 10.9501 17.5906C10.8629 17.5906 10.7677 17.5906 10.6805 17.5906C10.6805 17.5439 10.6725 17.5049 10.6725 17.4581C10.6646 17.3646 10.6646 17.2789 10.6646 17.1854C10.6646 17.0061 10.6567 16.8347 10.6567 16.6554C10.6567 16.6476 10.6567 16.6398 10.6487 16.6321C10.6408 16.6243 10.6329 16.6243 10.625 16.6243C10.4425 16.6087 10.2522 16.6243 10.0698 16.6476C10.0698 16.7567 10.0698 16.8658 10.0619 16.975C10.0619 17.0061 10.0619 17.0373 10.0619 17.0685C10.0619 17.1074 10.0619 17.1542 10.0539 17.201C10.0539 17.2165 10.046 17.2243 10.046 17.2321C10.0381 17.2477 10.0381 17.2711 10.0381 17.2867C10.0301 17.3724 10.0301 17.4581 10.046 17.5439C9.99047 17.5439 9.93495 17.5439 9.87944 17.5439C9.80805 17.5439 9.73667 17.5439 9.66529 17.5283C9.57805 17.5127 9.4908 17.5205 9.39563 17.5127C9.3639 17.5127 9.32425 17.5127 9.29252 17.5049C9.20528 17.5049 9.12597 17.4893 9.03872 17.4893C8.99114 17.4893 8.95148 17.4893 8.90389 17.4893C8.89596 17.4893 8.77699 17.4971 8.77699 17.5049C8.77699 17.427 8.78492 17.349 8.78492 17.2633C8.78492 17.2243 8.78492 17.1854 8.79286 17.1464C8.79286 17.1074 8.80079 17.0685 8.80079 17.0295C8.80079 16.8736 8.80079 16.7178 8.79286 16.5619C8.58664 16.5307 8.38043 16.5074 8.17422 16.5074C8.16629 16.6866 8.15836 16.8581 8.15042 17.0373C8.14249 17.123 8.14249 17.2165 8.13456 17.3023C8.13456 17.3256 8.13456 17.349 8.13456 17.3724C8.13456 17.388 8.13456 17.4036 8.12663 17.4114C8.1187 17.427 8.07904 17.427 8.06318 17.427C7.95214 17.4348 7.84111 17.427 7.73007 17.4192C7.68248 17.4192 7.62696 17.4114 7.57938 17.4114C7.45248 17.4036 7.32558 17.4036 7.20661 17.3958C7.16695 17.3958 7.12729 17.388 7.07971 17.388C7.05591 17.388 7.03212 17.3724 7.0004 17.3724C6.99246 17.3724 6.8735 17.3646 6.8735 17.3646C6.8735 17.3568 6.8735 17.349 6.8735 17.3412C6.8735 17.2555 6.8735 17.162 6.8735 17.0763C6.8735 17.0373 6.86556 16.9983 6.88143 16.9672C6.88936 16.9516 6.88143 16.936 6.88143 16.9204C6.88143 16.8814 6.88143 16.8425 6.88143 16.8035C6.88143 16.71 6.88936 16.6087 6.88936 16.5152C6.8735 16.5152 6.87349 16.4918 6.88143 16.3671ZM9.40356 14.9565C9.47494 14.9643 9.54632 14.9643 9.60977 14.9721C9.72081 14.9799 9.83185 14.9877 9.94289 15.0033C9.90323 14.8942 9.8715 14.7773 9.82392 14.6604C9.80805 14.6136 9.78426 14.5746 9.7684 14.5357C9.75254 14.4967 9.72874 14.4655 9.71288 14.4266C9.70495 14.4188 9.70495 14.4032 9.70495 14.3954C9.69702 14.3564 9.68115 14.3253 9.67322 14.2863C9.63357 14.1928 9.60184 14.0915 9.56219 13.998C9.54632 13.9512 9.53046 13.9122 9.50667 13.8655C9.50667 13.8733 9.49081 13.8888 9.49081 13.8966C9.48287 13.9122 9.46701 13.9278 9.45908 13.9434C9.3639 14.0837 9.26873 14.224 9.18149 14.3642C9.1339 14.4344 9.09424 14.5123 9.05459 14.5824C9.03079 14.6214 9.01493 14.6526 8.99114 14.6915C8.98321 14.7071 8.97527 14.7227 8.96734 14.7383C8.95941 14.7695 8.92769 14.8007 8.90389 14.824C8.87217 14.863 8.84838 14.902 8.81665 14.9409C8.81665 14.9409 8.84044 14.9409 8.84837 14.9409C8.85631 14.9409 8.87217 14.9409 8.8801 14.9409C8.90389 14.9409 8.92769 14.9409 8.95148 14.9409C8.99907 14.9409 9.03872 14.9409 9.08631 14.9331C9.10217 14.9331 9.12597 14.9253 9.14183 14.9253C9.16562 14.9253 9.18942 14.9253 9.21321 14.9331C9.2608 14.9331 9.30045 14.9409 9.34804 14.9409C9.3639 14.9565 9.3877 14.9565 9.40356 14.9565Z" fill="#4300BF"/>
<path d="M12.4729 8.69085C11.0215 7.55304 9.37978 7.36601 7.6825 8.11416C4.96208 9.31431 4.23241 12.868 5.86624 14.6371C6.09625 14.8864 6.27074 15.1748 6.50867 15.4242C6.72282 15.6502 6.7942 15.8918 6.77834 16.1957C6.75454 16.6165 6.71489 17.0452 6.77834 17.505L8.17424 17.5673L8.19803 16.5931L8.73735 16.6087V16.6165C8.73735 16.6243 8.73735 16.6321 8.73735 16.6399C8.73735 16.6477 8.73735 16.6633 8.73735 16.6711C8.73735 16.6867 8.73735 16.7023 8.73735 16.71C8.73735 16.7256 8.73735 16.7412 8.73735 16.7568C8.73735 16.7724 8.73735 16.7958 8.73735 16.8114C8.73735 16.8347 8.73735 16.8503 8.73735 16.8737C8.73735 16.8971 8.73735 16.9205 8.73735 16.9438C8.73735 16.9672 8.73735 16.9906 8.73735 17.014C8.73735 17.0374 8.73735 17.0607 8.73735 17.0841C8.73735 17.1075 8.73735 17.1309 8.73735 17.1543C8.73735 17.1776 8.73735 17.201 8.73735 17.2244C8.73735 17.2478 8.73735 17.2634 8.73735 17.2867C8.73735 17.3023 8.73735 17.3257 8.73735 17.3491C8.73735 17.3647 8.73735 17.3881 8.73735 17.4036C8.73735 17.4192 8.73735 17.4348 8.73735 17.4504C8.73735 17.4582 8.73735 17.4738 8.73735 17.4894C8.73735 17.4972 8.73735 17.505 8.73735 17.5127C8.73735 17.5361 8.72942 17.5595 8.72942 17.5907C8.73735 17.5907 8.73735 17.5907 8.74529 17.5907H8.76115C8.76908 17.5907 8.78494 17.5907 8.79287 17.5907C8.81667 17.5907 8.84046 17.5907 8.86425 17.5907C8.95943 17.5907 9.04667 17.5985 9.14185 17.5985C9.25289 17.6063 9.37185 17.6063 9.49082 17.6141C9.59393 17.6218 9.70497 17.6218 9.80807 17.6296C9.87152 17.6296 9.93497 17.6374 10.0064 17.6374C10.0143 17.6374 10.0222 17.6374 10.0301 17.6374C10.046 17.6374 10.0539 17.6374 10.0698 17.6296C10.0698 17.6063 10.0777 17.5751 10.0777 17.5517V17.5439C10.0777 17.5361 10.0777 17.5205 10.0857 17.5127C10.0857 17.4894 10.0936 17.466 10.0936 17.4504C10.0936 17.4348 10.0936 17.4192 10.0936 17.4036C10.0936 17.3881 10.0936 17.3725 10.0936 17.3647C10.0936 17.3491 10.0936 17.3413 10.0936 17.3257C10.0936 17.3101 10.0936 17.2945 10.0936 17.2789C10.0936 17.2634 10.0936 17.24 10.0936 17.2166C10.0936 17.1932 10.0936 17.1698 10.0936 17.1543C10.0936 17.1309 10.0936 17.1075 10.0936 17.0841C10.0936 17.0607 10.0936 17.0374 10.0936 17.014C10.0936 16.9906 10.0936 16.9672 10.0936 16.9438C10.0936 16.9205 10.0936 16.8971 10.0936 16.8737C10.0936 16.8581 10.0936 16.8347 10.0936 16.8114C10.0936 16.7958 10.0936 16.7802 10.0936 16.7646C10.0936 16.749 10.0936 16.7412 10.0936 16.7256C10.0936 16.7178 10.0936 16.71 10.0936 16.7023V16.6945L10.6329 16.71L10.6091 17.6764C10.6963 17.6764 12.0764 17.7387 12.0764 17.7387C12.0764 17.4582 12.0764 17.1776 12.0764 16.8893C12.0764 16.7568 12.0764 16.6243 12.0764 16.4918C12.0764 16.4529 12.0764 16.4139 12.0684 16.3827C12.0684 16.2892 12.0684 16.1957 12.0843 16.11C12.1002 16.0164 12.1319 15.9151 12.1953 15.8372C12.2112 15.8216 12.2271 15.7982 12.2429 15.7827C12.2667 15.7593 12.2826 15.7437 12.3064 15.7203C12.346 15.6813 12.3857 15.6346 12.4254 15.5956C12.5047 15.5099 12.584 15.432 12.6633 15.3462C12.7426 15.2605 12.814 15.1826 12.8933 15.0969C12.9726 15.0111 13.044 14.9332 13.1154 14.8475C13.1867 14.7617 13.2661 14.6838 13.3374 14.5981C13.4088 14.5124 13.4802 14.4344 13.5516 14.3487C13.5912 14.3097 13.623 14.263 13.6626 14.224C13.9323 13.8967 14.1226 13.5304 14.1861 13.1096C14.4716 11.3094 13.9085 9.81307 12.4729 8.69085ZM7.97595 16.336C7.96009 16.336 7.94423 16.336 7.92044 16.336C7.9125 16.336 7.90457 16.336 7.89664 16.336C7.89664 16.3749 7.89664 16.4139 7.89664 16.4529C7.89664 16.5308 7.88871 16.6165 7.88871 16.6945C7.88078 16.8581 7.87285 17.0296 7.87285 17.1932L7.16697 17.1621C7.16697 17.0919 7.1749 17.0218 7.1749 16.9516C7.18283 16.7958 7.19076 16.6399 7.19076 16.4762C7.19869 16.3126 7.20662 16.1411 7.20662 15.9775C7.20662 15.9151 7.21456 15.8528 7.21456 15.7904C7.21456 15.7593 7.20662 15.7281 7.20662 15.7047C7.20662 15.6735 7.19869 15.6424 7.19869 15.6112C7.19869 15.5956 7.19076 15.5878 7.19076 15.5722C7.18283 15.5644 7.18283 15.5489 7.1749 15.5411C7.16697 15.5177 7.15904 15.4943 7.14317 15.4709C7.11938 15.4242 7.09559 15.3774 7.07179 15.3306C7.048 15.2839 7.01627 15.2449 6.98455 15.1982C6.96869 15.1748 6.94489 15.1436 6.9211 15.1202C6.58799 14.7228 6.27074 14.3097 5.95349 13.8967C5.50141 13.2888 5.42209 12.5796 5.50934 11.8627C5.70762 10.2495 6.56419 9.08051 8.09492 8.48044C9.60979 7.88815 11.0453 8.13754 12.2509 9.2052C13.4802 10.2884 13.9323 11.6678 13.5357 13.281C13.4406 13.6941 13.1709 13.9902 12.9012 14.2864C12.5681 14.6526 12.2271 15.0111 11.886 15.3696C11.8702 15.3852 11.8543 15.393 11.8464 15.4086C11.8464 15.4164 11.8464 15.4164 11.8384 15.4242C11.8305 15.432 11.8305 15.4398 11.8226 15.4475C11.8146 15.4631 11.7988 15.4787 11.7909 15.4943C11.7829 15.5021 11.7829 15.5099 11.775 15.5177C11.7671 15.5255 11.7671 15.5255 11.7671 15.5333C11.7512 15.5644 11.7353 15.5956 11.7195 15.6268C11.6877 15.6969 11.6719 15.7749 11.656 15.8528C11.6481 15.8918 11.6481 15.9307 11.6481 15.9697C11.6481 15.9853 11.6481 16.0087 11.6481 16.0242C11.6481 16.032 11.6481 16.0398 11.6481 16.0554C11.6481 16.071 11.6481 16.0866 11.6481 16.1022C11.6481 16.1256 11.6481 16.1567 11.6481 16.1801C11.6481 16.2269 11.6481 16.2658 11.6481 16.3126C11.6481 16.3983 11.6481 16.4918 11.6481 16.5776C11.6481 16.6633 11.6481 16.7568 11.6481 16.8425C11.6481 16.9283 11.6481 17.0218 11.6481 17.1075C11.6481 17.1543 11.6481 17.1932 11.6481 17.24C11.6481 17.2634 11.6481 17.2867 11.6481 17.3101C11.6481 17.3179 11.6481 17.3257 11.6481 17.3335V17.3413C11.6402 17.3491 11.6322 17.3413 11.6322 17.3413C11.6243 17.3413 11.6084 17.3413 11.6005 17.3413C11.5608 17.3413 11.5133 17.3413 11.4736 17.3335C11.2991 17.3257 11.1246 17.3179 10.9501 17.3101C10.9581 17.1621 10.9581 17.014 10.966 16.8737C10.966 16.8269 10.9739 16.7724 10.9739 16.7256C10.9739 16.6633 10.9739 16.6087 10.9739 16.5464C10.9739 16.523 10.9739 16.5074 10.9739 16.484L10.8708 16.4685C10.8312 16.4607 10.7915 16.4529 10.7519 16.4529C10.6646 16.4451 10.5853 16.4373 10.4981 16.4295C10.4108 16.4217 10.3236 16.4217 10.2364 16.4217C10.1491 16.4217 10.0619 16.4217 9.97463 16.4217C9.90325 16.4217 9.82393 16.4217 9.75255 16.4217L9.72083 17.3179L9.01495 17.2867L9.04667 16.4061C9.00702 16.3983 8.95943 16.3905 8.91977 16.3827C8.83253 16.3671 8.75322 16.3593 8.66597 16.3516C8.57873 16.3438 8.49149 16.3438 8.40424 16.336C8.317 16.336 8.22976 16.336 8.14251 16.3282C8.10286 16.3282 8.05527 16.3282 8.01561 16.3282" fill="#E0E3BD"/>
<path d="M9.73668 13.733C9.72875 13.7252 9.72875 13.7096 9.72082 13.7019C9.70495 13.6785 9.69702 13.6473 9.68116 13.6239C9.67323 13.6083 9.6653 13.5927 9.65737 13.5772C9.64944 13.5616 9.6415 13.5538 9.63357 13.5382C9.60185 13.4914 9.57805 13.4369 9.54633 13.3901C9.53047 13.3667 9.52254 13.3434 9.50667 13.3122C9.50667 13.3044 9.49874 13.2966 9.49874 13.2966C9.49874 13.2888 9.49081 13.281 9.49081 13.281C9.48288 13.281 9.48288 13.281 9.48288 13.2888C9.48288 13.2966 9.47495 13.2966 9.47495 13.3044C9.47495 13.3122 9.46702 13.32 9.46702 13.3278C9.45909 13.3434 9.45115 13.359 9.44322 13.3667C9.4115 13.4135 9.37977 13.4681 9.35598 13.5148C9.32425 13.5616 9.29253 13.6161 9.26874 13.6629C9.22908 13.7252 9.19735 13.7876 9.1577 13.8577C9.14183 13.8811 9.1339 13.9045 9.11804 13.9201C9.10218 13.9434 9.08632 13.9668 9.07838 13.9902C9.06252 14.0136 9.04666 14.037 9.0308 14.0681C9.01493 14.0915 8.99907 14.1227 8.98321 14.1461C8.96735 14.1772 8.95149 14.2006 8.93562 14.2318C8.91976 14.263 8.9039 14.2863 8.88804 14.3175C8.87217 14.3487 8.85631 14.3799 8.84045 14.4032C8.82459 14.4344 8.80872 14.4656 8.79286 14.489C8.777 14.5201 8.76113 14.5435 8.74527 14.5747C8.72941 14.6059 8.71355 14.6292 8.69769 14.6604C8.68182 14.6916 8.66596 14.715 8.6501 14.7461C8.63423 14.7695 8.61837 14.8007 8.60251 14.8241C8.58665 14.8475 8.57078 14.8708 8.56285 14.8942C8.54699 14.9176 8.53906 14.941 8.5232 14.9644C8.51527 14.9877 8.4994 15.0033 8.49147 15.0267C8.48354 15.0423 8.46768 15.0579 8.45975 15.0812C8.45182 15.0968 8.44389 15.1124 8.43595 15.128C8.42802 15.1358 8.42009 15.1514 8.42009 15.1592C8.41216 15.167 8.41216 15.1748 8.40423 15.1826L8.3963 15.1904H8.40423C8.45182 15.1904 8.49147 15.1904 8.53906 15.1981C8.54699 15.1981 8.55492 15.1981 8.57079 15.1981C8.57872 15.1981 8.59458 15.1981 8.60251 15.1981C8.61044 15.1981 8.61044 15.1981 8.61837 15.1981C8.6263 15.1981 8.63423 15.1981 8.64217 15.1981C8.6501 15.1981 8.65803 15.1981 8.67389 15.1981C8.68182 15.1981 8.69768 15.1981 8.70562 15.1981C8.72148 15.1981 8.73734 15.1981 8.74527 15.1981C8.76113 15.1981 8.777 15.1981 8.79286 15.1981C8.80872 15.1981 8.82459 15.1981 8.84045 15.1981C8.85631 15.1981 8.8801 15.1981 8.89597 15.1981C8.91183 15.1981 8.93562 15.1981 8.95149 15.1981C8.97528 15.1981 8.99114 15.1981 9.01494 15.1981C9.03873 15.1981 9.05459 15.1981 9.07838 15.1981C9.10218 15.1981 9.12597 15.1981 9.14183 15.1981C9.16563 15.1981 9.18942 15.1981 9.21322 15.1981C9.23701 15.1981 9.2608 15.1981 9.2846 15.1981C9.30839 15.1981 9.33219 15.1981 9.35598 15.1981C9.37977 15.1981 9.40357 15.1981 9.42736 15.1981C9.45115 15.1981 9.47495 15.1981 9.49874 15.1981C9.52253 15.1981 9.54633 15.1981 9.57012 15.1981C9.59392 15.1981 9.61771 15.1981 9.6415 15.1981C9.6653 15.1981 9.68909 15.1981 9.71289 15.1981C9.73668 15.1981 9.76047 15.1981 9.77634 15.1981C9.80013 15.1981 9.81599 15.1981 9.83978 15.1981C9.86358 15.1981 9.87944 15.1981 9.90324 15.1981C9.9191 15.1981 9.94289 15.1981 9.95875 15.1981C9.97462 15.1981 9.99841 15.1981 10.0143 15.1981C10.0301 15.1981 10.046 15.1981 10.0619 15.1981C10.0777 15.1981 10.0936 15.1981 10.1095 15.1981C10.1253 15.1981 10.1332 15.1981 10.1491 15.1981L10.4346 15.2059C10.4426 15.2059 10.4426 15.2059 10.4426 15.2059C10.4267 15.1592 10.4029 15.1202 10.387 15.0735C10.3394 14.9644 10.2919 14.863 10.2443 14.7539C10.1808 14.6215 10.1253 14.4812 10.0619 14.3487C10.0063 14.224 9.95082 14.0915 9.8953 13.9668C9.85565 13.8811 9.82392 13.7954 9.78427 13.7174C9.75254 13.7642 9.74461 13.7486 9.73668 13.733C9.73668 13.7408 9.73668 13.7408 9.73668 13.733ZM8.91976 14.9098C9.11011 14.5903 9.2846 14.3019 9.48288 13.9668C9.61771 14.3253 9.72875 14.6059 9.86358 14.9488C9.5384 14.9332 9.26874 14.9176 8.91976 14.9098Z" fill="#E0E3BD"/>
<path d="M19.96 22.7185C20.4121 23.1394 20.8721 23.568 21.3242 23.981C21.3559 25.2435 21.2528 26.4515 21.229 27.6516C21.1497 27.7997 21.0228 27.862 20.8959 27.9322C19.7379 28.5712 18.5879 29.2103 17.43 29.8493C17.2396 29.9584 17.0572 30.013 16.843 29.9974C15.3916 29.9039 13.9323 29.8259 12.4809 29.7324C11.1167 29.6467 9.75252 29.5454 8.39627 29.4597C6.16759 29.3116 3.93098 29.1635 1.7023 29.0154C1.40092 28.9998 1.10746 28.9921 0.806074 28.9843C0.504687 28.9765 0.338131 28.8206 0.338131 28.5323C0.3302 27.3711 0.3302 26.2021 0.3302 25.0409C0.3302 24.8305 0.465031 24.698 0.631587 24.5733C1.20264 24.1447 1.75782 23.7083 2.40025 23.2173C2.40025 21.7989 2.38439 20.3416 2.40025 18.8843C2.44784 14.9955 2.51129 11.1067 2.58267 7.21786C2.63819 4.34217 4.61307 1.71586 7.4128 0.835228C9.25285 0.258531 11.1405 -0.0999556 13.0916 0.0247356C15.582 0.196186 17.7313 1.03785 19.2066 3.13422C19.9997 4.26424 20.428 5.52674 20.4359 6.90613C20.4438 9.41554 20.3169 11.9172 20.2376 14.4266C20.1504 17.0607 20.0631 19.6948 19.9759 22.3289C19.96 22.438 19.96 22.5393 19.96 22.7185ZM3.11407 23.1861C7.4128 23.3887 11.6877 23.5914 15.9389 23.7862C16.0261 23.6459 16.0023 23.529 16.0023 23.4199C16.0579 21.6976 16.1134 19.9675 16.1689 18.2374C16.2641 14.9877 16.3672 11.7379 16.4544 8.49594C16.4703 7.8569 16.5099 7.21006 16.4306 6.57882C16.2006 4.74741 15.1775 3.36023 13.7102 2.28476C11.8067 0.897574 9.70493 0.905367 7.57936 1.62234C5.01756 2.47959 3.40752 4.72403 3.35993 7.3971C3.27269 12.2445 3.19338 17.0918 3.11407 21.9392C3.11407 22.3445 3.11407 22.7419 3.11407 23.1861ZM19.151 22.5705C19.159 22.438 19.1748 22.3523 19.1748 22.2665C19.2304 20.5364 19.2859 18.8141 19.3493 17.0841C19.4445 14.2473 19.5476 11.4028 19.6428 8.56608C19.6745 7.59193 19.7142 6.61778 19.4683 5.66701C18.7783 3.00174 16.9461 1.52882 14.2813 0.95992C14.0909 0.920954 13.8926 0.897574 13.7023 0.874194C13.5199 0.850814 13.3454 0.819642 13.1629 0.811849C12.9885 0.804056 12.806 0.811849 12.6236 0.811849C13.4961 1.17034 14.2575 1.63793 14.9237 2.26138C16.4703 3.71871 17.3744 5.43322 17.2872 7.59973C17.192 9.93769 17.1603 12.2834 17.0968 14.6214C17.0334 16.6554 16.9461 18.6894 16.8986 20.7235C16.8748 21.6742 16.8906 22.6328 16.8906 23.607C17.6044 23.2718 18.3658 22.9289 19.151 22.5705ZM16.5892 29.2181C16.5892 28.2829 16.5892 27.3944 16.5892 26.4826C11.426 26.2255 6.28656 25.9683 1.13919 25.7111C1.13919 26.5528 1.13919 27.3633 1.13919 28.2049C6.29449 28.5401 11.426 28.883 16.5892 29.2181ZM16.0975 24.5889C15.6375 24.5032 15.1696 24.5421 14.7095 24.5188C10.7994 24.3317 6.8814 24.1447 2.9713 23.9577C2.88406 23.9577 2.77302 23.9421 2.70957 23.9888C2.31301 24.2694 1.90059 24.5266 1.53575 24.9474C6.5245 25.1968 11.4577 25.4462 16.4306 25.6877C16.3196 25.3137 16.2165 24.9786 16.0975 24.5889ZM17.422 26.4047C17.422 27.2464 17.422 28.0725 17.422 28.9609C18.461 28.3842 19.4524 27.8387 20.4359 27.2931C20.4676 26.4515 20.5469 25.6332 20.5073 24.7681C19.4524 25.3293 18.4372 25.867 17.422 26.4047ZM20.1821 24.0512C19.96 23.7628 19.7142 23.5368 19.4524 23.2952C18.6196 23.6771 17.7869 24.0512 16.9462 24.4408C17.0493 24.8383 17.1365 25.2046 17.3031 25.5786C18.2786 25.0565 19.2224 24.5577 20.1821 24.0512Z" fill="#4300BF"/>
<path d="M10.8629 12.2367C10.6725 12.5172 10.6567 12.8991 10.7915 13.2108C10.8312 13.3043 10.8867 13.3901 10.9739 13.4446C11.1484 13.5459 11.3705 13.4524 11.5529 13.3589C11.7909 13.2342 12.0367 13.0861 12.1319 12.8367C12.2033 12.6575 12.1715 12.4471 12.0843 12.2756C12.0367 12.1665 11.9653 12.073 11.886 11.9873C11.8305 11.9327 11.7829 11.8626 11.6957 11.8548C11.4974 11.8236 11.2833 11.886 11.1167 11.9873C11.0136 12.0574 10.9263 12.1431 10.8629 12.2367Z" fill="white"/>
<path d="M7.2542 12.2913C7.19075 12.4004 7.14316 12.5173 7.13523 12.642C7.11937 12.8524 7.22248 13.0473 7.31765 13.2343C7.33351 13.2733 7.35731 13.3122 7.38903 13.3356C7.42076 13.359 7.46041 13.3668 7.50007 13.3746C7.89663 13.4291 8.30906 13.2733 8.56286 12.9693C8.61044 12.907 8.6501 12.8446 8.67389 12.7745C8.70562 12.6654 8.70562 12.5563 8.69769 12.4472C8.68976 12.2913 8.67389 12.1121 8.55493 12.003C8.49941 11.9484 8.42803 11.9095 8.35665 11.8783C8.2694 11.8315 8.16629 11.777 8.07112 11.7458C7.99974 11.7302 7.91249 11.7536 7.84905 11.777C7.68249 11.8315 7.53973 11.9406 7.42076 12.0653C7.38903 12.1043 7.35731 12.1355 7.32558 12.1744C7.30972 12.1978 7.29386 12.2134 7.28593 12.2368C7.278 12.2446 7.27006 12.2757 7.2542 12.2913Z" fill="white"/>
<path d="M11.1881 13.5148C11.1088 13.507 11.0294 13.4914 10.9501 13.4758C10.9184 13.429 10.8946 13.3901 10.8708 13.3433C10.847 13.2966 10.8391 13.2576 10.8153 13.2108C10.7677 13.1173 10.7439 13.0238 10.7281 12.9225C10.6963 12.6965 10.736 12.4627 10.855 12.2757C10.9739 12.0886 11.1643 11.9328 11.3784 11.8626C11.4657 11.8314 11.5688 11.8159 11.6639 11.847C11.7274 11.8626 11.775 11.9016 11.8226 11.9483C11.8464 11.9717 11.8702 11.9951 11.886 12.0185C11.9019 12.0419 11.9257 12.0652 11.9415 12.0886C11.9177 12.0886 11.8939 12.0808 11.8702 12.0808C11.8464 12.0808 11.8146 12.073 11.7908 12.073C11.3229 12.073 10.9343 12.4471 10.9343 12.9147C10.9343 13.1407 11.0294 13.3589 11.1881 13.5148Z" fill="#272F49"/>
<path d="M7.41281 13.3746C7.40487 13.3746 7.38108 13.3278 7.38108 13.32C7.37315 13.3044 7.35729 13.2811 7.34936 13.2577C7.33349 13.2187 7.3097 13.1719 7.30177 13.133C7.28591 13.0862 7.28591 13.0473 7.27004 13.0005C7.25418 12.9459 7.23832 12.8914 7.22246 12.8368C7.19073 12.7277 7.17487 12.6186 7.19073 12.5017C7.20659 12.3147 7.3097 12.1354 7.45246 12.003C7.59522 11.8705 7.77764 11.7848 7.96799 11.7458C8.03144 11.7302 8.09489 11.7224 8.16627 11.738C8.24559 11.7536 8.31697 11.8003 8.37249 11.8627C8.40421 11.8939 8.428 11.925 8.4518 11.9562C8.45973 11.9718 8.47559 11.9874 8.45973 12.003C8.4518 12.0108 8.44387 12.0108 8.43594 12.0108C8.41214 12.0108 8.38042 12.003 8.35662 12.003C8.33283 12.003 8.30111 11.9952 8.27731 11.9952C7.80937 11.9952 7.42074 12.3692 7.42074 12.8368C7.42074 13.0628 7.50798 13.2655 7.65867 13.4213C7.65074 13.4213 7.41281 13.3746 7.41281 13.3746Z" fill="#272F49"/>
<path d="M7.76181 13.5928C7.15904 13.5928 6.6673 13.1096 6.6673 12.5173C6.6673 11.925 7.15904 11.4419 7.76181 11.4419C8.36459 11.4419 8.85632 11.925 8.85632 12.5173C8.85632 13.1096 8.36459 13.5928 7.76181 13.5928ZM7.76181 11.7536C7.33352 11.7536 6.98455 12.0965 6.98455 12.5173C6.98455 12.9382 7.33352 13.2811 7.76181 13.2811C8.1901 13.2811 8.53907 12.9382 8.53907 12.5173C8.53907 12.0965 8.1901 11.7536 7.76181 11.7536Z" fill="#E0E3BD"/>
<path d="M11.2833 13.6707C10.6805 13.6707 10.1887 13.1876 10.1887 12.5953C10.1887 12.003 10.6805 11.5198 11.2833 11.5198C11.886 11.5198 12.3778 12.003 12.3778 12.5953C12.3778 13.1876 11.886 13.6707 11.2833 13.6707ZM11.2833 11.8316C10.855 11.8316 10.506 12.1745 10.506 12.5953C10.506 13.0161 10.855 13.359 11.2833 13.359C11.7115 13.359 12.0605 13.0161 12.0605 12.5953C12.0605 12.1745 11.7115 11.8316 11.2833 11.8316Z" fill="#E0E3BD"/>
<path d="M7.25421 13.2107C7.14317 13.0471 7.08765 12.86 7.08765 12.673C7.08765 12.1197 7.53973 11.6755 8.10285 11.6755C8.11078 11.6755 8.12664 11.6755 8.13458 11.6755C8.19802 11.7378 8.26147 11.7924 8.30906 11.8547C8.23768 11.8391 8.17423 11.8313 8.10285 11.8313C7.63491 11.8313 7.24628 12.2054 7.24628 12.673C7.24628 12.899 7.33352 13.1016 7.48421 13.2575L7.25421 13.2107Z" fill="#E0E3BD"/>
<path d="M11.0294 13.351C10.9501 13.3432 10.8708 13.3276 10.7915 13.3121C10.6805 13.1484 10.617 12.9536 10.617 12.7509C10.617 12.221 11.0453 11.7846 11.5767 11.7534L11.7829 11.9171C11.7353 11.9093 11.6798 11.9015 11.6243 11.9015C11.1563 11.9015 10.7677 12.2756 10.7677 12.7431C10.7756 12.9847 10.8708 13.1952 11.0294 13.351Z" fill="#E0E3BD"/>
</g>
<defs>
<clipPath id="clip0_3627_55776">
<rect width="21" height="30" fill="white" transform="translate(0.3302)"/>
</clipPath>
</defs>
</svg>
